# xmcd
#
# Track frame offsets:
#	150
#	15376
#	34460
#	54381
#	73737
#	96939
#	131311
#	156126
#	175696
#	199615
#	220428
#	244851
#
# Disc length: 4222 seconds
# Revision: 0
# Processed by: cddbd v1.5.2PL0 Copyright (c) Steve Scherf et al.
# Submitted via: dBpowerAMP V12.0
#
DISCID=a3107c0c
DTITLE=Chicken Congress - Chicken Congress
DYEAR=2011
DGENRE=Blues
TTITLE0=Heavy Load
TTITLE1=Black Hands
TTITLE2=Yellow Dog
TTITLE3=Roots
TTITLE4=Fixed Wheel
TTITLE5=Landscape from the Lane
TTITLE6=The Trap
TTITLE7=Bus Driver
TTITLE8=Still Hear the Song
TTITLE9=The Wolf Song (live recording)
TTITLE10=Long Distance Call
TTITLE11=Shaman (live recording)
EXTD=
EXTT0=
EXTT1=
EXTT2=
EXTT3=
EXTT4=
EXTT5=
EXTT6=
EXTT7=
EXTT8=
EXTT9=
EXTT10=
EXTT11=
PLAYORDER=
